<?xml version="1.0" encoding="UTF-8"?>
<svg width="328px" height="92px" viewBox="0 0 328 92" version="1.1" xmlns="http://www.w3.org/2000/svg" xmlns:xlink="http://www.w3.org/1999/xlink">
    <title>Logo iCRM+ 03a</title>
    <g id="Page-1" stroke="none" stroke-width="1" fill="none" fill-rule="evenodd">
        <g id="01.-Logo-iCRM+-03a" transform="translate(-76.000000, -194.000000)">
            <g id="Logo-iCRM+-03a" transform="translate(76.000000, 194.000000)">
                <g id="Group" transform="translate(0.000000, 28.000000)" fill="#053F88">
                    <polygon id="Rectangle" points="5.45696821e-12 26 16 26 16 64 -5.03125319e-13 64"></polygon>
                    <circle id="Oval" cx="8" cy="8" r="8"></circle>
                </g>
                <path d="M59.7524421,76 C63.7107776,76 67.3333878,74.5625888 70.1267724,72.1812667 L81.9996796,83 C76.2425393,88.571542 68.3978703,92 59.7524421,92 C43.4342687,92 29.9689,79.7856912 28.0001247,64.0008625 L44.2565843,64.0002806 C46.032853,70.9010471 52.2971854,76 59.7524421,76 Z M59.7524421,28 C68.3978703,28 76.2425393,31.428458 82.0010172,36.999942 L81.9996796,37 L70.1267724,47.8187333 C67.3333878,45.4374112 63.7107776,44 59.7524421,44 C52.2968239,44 46.0322455,49.0994474 44.2563259,56.0007233 L28,56.0001373 C29.9683314,40.2148245 43.4339242,28 59.7524421,28 Z" id="Combined-Shape" fill="#053F88"></path>
                <g id="Group-2" transform="translate(94.000000, 28.000000)" fill="#053F88">
                    <polygon id="Rectangle" points="-5.0437432e-13 0 16 0 16 64 -5.0437432e-13 64"></polygon>
                    <polygon id="Rectangle" points="23 33 41 33 68 64 50 64"></polygon>
                    <path d="M42,48 L41.394,48 L29.576,33 L46,33 C48.9606507,33 51.5456688,31.3917256 52.9290715,29.0011597 L65.4783983,29.0001181 C63.1780138,39.8550136 53.5401887,48 42,48 Z M42,0 C54.2388596,-2.24824203e-15 64.3380354,9.16107518 65.8143211,21.0000192 L52.9296499,20.99984 C51.5853328,18.6760406 49.1056816,17.0912019 46.2491793,17.0038068 L46,17 L10,17 L10,0 L42,0 Z" id="Combined-Shape"></path>
                </g>
                <g id="Group-3" transform="translate(268.000000, 0.000000)">
                    <rect id="Rectangle" fill="#053F88" x="42" y="18" width="18" height="18"></rect>
                    <polygon id="Rectangle" fill="#D62226" points="18 0 36 0 36 36 18 36 4.99600361e-15 36 4.99600361e-15 18 18 18"></polygon>
                    <rect id="Rectangle" fill="#FFCB05" x="18" y="42" width="18" height="18"></rect>
                </g>
                <g id="Group-4" transform="translate(174.000000, 28.000000)" fill="#053F88">
                    <polygon id="Rectangle" points="4.0406567e-13 0 16 0 16 64 4.0406567e-13 64"></polygon>
                    <polygon id="Rectangle" points="66 39.5 82 14 82 64 66 64"></polygon>
                    <path d="M0,0 L18,0 L45.2165804,43.3764249 C46.6777587,45.705178 45.9744505,48.7775244 43.6456975,50.2387028 C42.8529036,50.7361421 41.9359316,51 41,51 C35.3997649,51 30.1930553,48.1201819 27.2165804,43.3764249 L0,0 L0,0 Z" id="Rectangle"></path>
                    <path d="M32,0 L50,0 L77.2165804,43.3764249 C78.6777587,45.705178 77.9744505,48.7775244 75.6456975,50.2387028 C74.8529036,50.7361421 73.9359316,51 73,51 C67.3997649,51 62.1930553,48.1201819 59.2165804,43.3764249 L32,0 L32,0 Z" id="Rectangle" transform="translate(57.000000, 25.500000) scale(-1, 1) translate(-57.000000, -25.500000) "></path>
                </g>
            </g>
        </g>
    </g>
</svg>